<?xml version="1.0" encoding="utf-8"?>
<!-- Generator: Adobe Illustrator 22.0.1, SVG Export Plug-In . SVG Version: 6.00 Build 0)  -->
<svg version="1.1" id="圖層_1" xmlns="http://www.w3.org/2000/svg" xmlns:xlink="http://www.w3.org/1999/xlink" x="0px" y="0px"
	 viewBox="0 0 80 80" style="enable-background:new 0 0 80 80;" xml:space="preserve">
<style type="text/css">
	.st0{fill:#FFFFFF;}
	.st1{fill:#C8C8C8;}
	.st2{fill:#E83E30;}
</style>
<g>
	<rect x="6.9" y="12.1" class="st0" width="66.1" height="55.8"/>
	<g>
		<path class="st1" d="M71.6,11.3c0,0-62.1-0.2-63.4,0c-0.7,0.1-1.4,0.4-2,0.8L7.4,13c0.4,0,1-0.1,1.4-0.1h62.5
			c0.4,0,0.9,0.1,1.3,0.1l1.2-0.9C73.1,11.4,71.6,11.3,71.6,11.3z"/>
		<path class="st1" d="M42.5,45.3c0.1,0.1,12.3,10.2,18.3,15.1c2.7,2.2,5.7,4.4,8.4,6.6v-1l-26.2-21L42.5,45.3z"/>
		<path class="st1" d="M10.3,67L10.3,67l0,1.8l58.9,0c0,0,0-1.2,0-1.8l-58.8,0H10.3z"/>
		<path class="st1" d="M36.4,45L10.3,65.9V67L37,45.3C36.7,45.1,36.7,45.1,36.4,45z"/>
	</g>
	<path class="st2" d="M77.5,17.2c-0.2-1.4-0.8-2.6-1.8-3.6c-0.6-0.6-1.2-1.2-2-1.5c0,0-24.8,17.5-31.7,22.6
		c-0.7,0.5-1.7,1.4-2.2,1.3c-0.3,0-1.2-0.7-2.1-1.3c-10-7-31.6-22.7-31.6-22.7c-1.7,0.8-3,2.2-3.6,4c-0.1,0.3,0,31.9,0,47.4
		c0.1,0.7,0.4,1.4,0.8,2c0.9,1.4,2.1,2.4,3.6,3c1.2,0.3,3.3,0.3,3.3,0.3l0-1.8l0.3-40.1c0.5-0.1,0.7,0.2,0.9,0.4
		c7.9,5.6,15.7,11.2,23.6,16.8c0.4,0.3,0.9,0.6,1.3,1c0.2,0.1,0.4,0.3,0.6,0.4c0.5,0.3,1,0.6,1.5,1c1.4,0.9,1.4,0.9,2.7,0
		c0.4-0.3,0.9-0.6,1.3-0.9l0.7-0.5c5.3-3.8,10.7-7.5,16-11.3c3.1-2.2,6.1-4.4,9.1-6.5c0.2-0.2,0.4-0.4,0.8-0.5l0,42.3
		c0,0,3.3,0,5.2-1.2c1.4-0.9,2.3-2.3,2.9-3.9c0.1-0.2,0.1-0.4,0.2-0.7V17.2z"/>
</g>
</svg>
