<?xml version="1.0" encoding="utf-8"?>
<!-- Generator: Adobe Illustrator 16.0.0, SVG Export Plug-In . SVG Version: 6.00 Build 0)  -->
<!DOCTYPE svg PUBLIC "-//W3C//DTD SVG 1.1//EN" "http://www.w3.org/Graphics/SVG/1.1/DTD/svg11.dtd" [
	<!ENTITY ns_flows "http://ns.adobe.com/Flows/1.0/">
	<!ENTITY ns_extend "http://ns.adobe.com/Extensibility/1.0/">
	<!ENTITY ns_ai "http://ns.adobe.com/AdobeIllustrator/10.0/">
	<!ENTITY ns_graphs "http://ns.adobe.com/Graphs/1.0/">
	<!ENTITY ns_vars "http://ns.adobe.com/Variables/1.0/">
	<!ENTITY ns_imrep "http://ns.adobe.com/ImageReplacement/1.0/">
	<!ENTITY ns_sfw "http://ns.adobe.com/SaveForWeb/1.0/">
	<!ENTITY ns_custom "http://ns.adobe.com/GenericCustomNamespace/1.0/">
	<!ENTITY ns_adobe_xpath "http://ns.adobe.com/XPath/1.0/">
]>
<svg version="1.1" id="圖層_1" xmlns:x="&ns_extend;" xmlns:i="&ns_ai;" xmlns:graph="&ns_graphs;"
	 xmlns="http://www.w3.org/2000/svg" xmlns:xlink="http://www.w3.org/1999/xlink" xmlns:a="http://ns.adobe.com/AdobeSVGViewerExtensions/3.0/"
	 x="0px" y="0px" width="70px" height="70px" viewBox="0 0 70 70" style="enable-background:new 0 0 70 70;" xml:space="preserve">
<style type="text/css">
<![CDATA[
	.st0{fill:#2782D7;}
]]>
</style>
<metadata>
	<sfw  xmlns="&ns_sfw;">
		<slices></slices>
		<sliceSourceBounds  width="61.4" height="60.2" bottomLeftOrigin="true" y="-4.6" x="-6.2"></sliceSourceBounds>
	</sfw>
</metadata>
<g>
	<g>
		<path class="st0" d="M10.7,48.5c2.6,3.7,6.9,8.9,12.3,12.6c2.8,1.9,5.4,3.3,9.2,3.9c3.7,0.5,6.7-0.1,9.8-2.3c0,0,2.8-2.1,3.6-2.8
			c0.3-0.1,0.6-0.5,0.6-0.5c0.4-0.4,0.5-0.6,0.6-1c0.1-1.2-1-3.1-3.2-5c-2.6-2.3-4.9-3.6-6.3-3.6c0,0,0,0-0.1,0
			c-0.5,0-0.9,0.1-1.5,0.5c-0.1,0.1-1.5,1-2.2,1.7l-0.9,0.8c-0.9,0.9-2.1,2.1-3.6,2.2c-2.7,0.3-5.1-1.7-6.7-3.1
			c-2.8-2.6-5.3-5.7-7.2-9c-0.8-1.3-2.3-4.1-1.4-6.9c0.5-1.4,1.7-2.3,2.7-3l0.5-0.4c0.6-0.4,1.3-1,1.7-1.3c0.9-0.6,1.8-1.5,1.9-2.6
			c0.1-1.4-0.6-3.6-2.2-6.3c-0.8-1.3-2.6-4.2-4.1-4.5c-0.5-0.1-1,0.1-1.7,0.6c-0.6,0.4-2.1,1.4-3.2,2.4l-0.6,0.5
			c-3,3-4.5,6.4-4.5,10.5C4.4,38.6,7.5,43.8,10.7,48.5z"/>
		<path class="st0" d="M8.7,20L8.7,20L8.7,20z"/>
	</g>
	<path class="st0" d="M33.2,30.1c-0.4,0.5-0.9,1-1.5,1.5c-0.6,0.5-1.4,1.2-2.3,1.9c-1,0.8-1.9,1.5-2.6,2.2c-0.6,0.6-1.3,1.3-1.5,1.8
		c-0.8,1.2-1.2,2.7-1.2,4.4h14.1v-3.5h-9c0.3-0.3,0.6-0.6,1.2-1c0.5-0.4,1-1,1.8-1.5c1.2-1,2.2-1.8,3-2.6c0.8-0.8,1.4-1.4,1.8-2.1
		c0.4-0.6,0.8-1.3,0.9-1.9c0.3-0.6,0.3-1.4,0.3-2.2c0-0.9-0.1-1.7-0.4-2.4c-0.3-0.8-0.8-1.4-1.3-1.9c-0.5-0.5-1.3-0.9-2.1-1.3
		c-0.8-0.3-1.8-0.5-2.8-0.5c-1,0-1.9,0.1-2.7,0.5c-0.8,0.4-1.5,0.8-2.2,1.4c-0.6,0.6-1,1.3-1.4,2.2c-0.4,0.9-0.6,1.8-0.6,2.8h3.9
		c0-0.6,0.1-1.2,0.4-1.5c0.1-0.5,0.4-0.9,0.6-1.2c0.3-0.3,0.5-0.5,0.9-0.6c0.4-0.1,0.8-0.3,1.2-0.3c0.9,0,1.7,0.3,2.2,0.8
		c0.5,0.5,0.8,1.2,0.8,2.1c0,0.5-0.1,1-0.3,1.5C33.8,29.1,33.6,29.6,33.2,30.1L33.2,30.1z"/>
	<path class="st0" d="M52.2,42v-4.6h2.6V34h-2.6V21.1h-3l-9.1,13.4v3h8.2V42L52.2,42L52.2,42z M44.2,34l4.1-6.2V34H44.2z"/>
	<path class="st0" d="M38.9,4.9c-8.6,0-16.2,4-21.1,10.3c0.9,0.6,1.7,1.5,2.3,2.3C24.3,11.7,31.1,8,39,8c13.1,0,23.6,10.5,23.6,23.6
		c0,9.5-5.7,17.7-13.7,21.4c0.6,0.9,1.3,1.9,1.7,2.8c9-4.4,15.2-13.5,15.2-24.1C65.6,16.9,53.6,4.9,38.9,4.9z"/>
</g>
</svg>
