<?xml version="1.0" encoding="utf-8"?>
<!-- Generator: Adobe Illustrator 16.0.0, SVG Export Plug-In . SVG Version: 6.00 Build 0)  -->
<!DOCTYPE svg PUBLIC "-//W3C//DTD SVG 1.1//EN" "http://www.w3.org/Graphics/SVG/1.1/DTD/svg11.dtd" [
	<!ENTITY ns_flows "http://ns.adobe.com/Flows/1.0/">
	<!ENTITY ns_extend "http://ns.adobe.com/Extensibility/1.0/">
	<!ENTITY ns_ai "http://ns.adobe.com/AdobeIllustrator/10.0/">
	<!ENTITY ns_graphs "http://ns.adobe.com/Graphs/1.0/">
	<!ENTITY ns_vars "http://ns.adobe.com/Variables/1.0/">
	<!ENTITY ns_imrep "http://ns.adobe.com/ImageReplacement/1.0/">
	<!ENTITY ns_sfw "http://ns.adobe.com/SaveForWeb/1.0/">
	<!ENTITY ns_custom "http://ns.adobe.com/GenericCustomNamespace/1.0/">
	<!ENTITY ns_adobe_xpath "http://ns.adobe.com/XPath/1.0/">
]>
<svg version="1.1" id="圖層_1" xmlns:x="&ns_extend;" xmlns:i="&ns_ai;" xmlns:graph="&ns_graphs;"
	 xmlns="http://www.w3.org/2000/svg" xmlns:xlink="http://www.w3.org/1999/xlink" xmlns:a="http://ns.adobe.com/AdobeSVGViewerExtensions/3.0/"
	 x="0px" y="0px" width="100px" height="100px" viewBox="0 0 100 100" style="enable-background:new 0 0 100 100;"
	 xml:space="preserve">
<style type="text/css">
<![CDATA[
	.st0{fill:#FFFFFF;}
	.st1{fill:#44CB00;}
]]>
</style>
<metadata>
	<sfw  xmlns="&ns_sfw;">
		<slices></slices>
		<sliceSourceBounds  width="89.9" height="85.4" bottomLeftOrigin="true" y="-17.2" x="-20.4"></sliceSourceBounds>
	</sfw>
</metadata>
<g>
	<g id="g7962" transform="matrix(1.6639441,0,0,1.6639441,546.02809,375.00068)">
		<path id="path7964" class="st1" d="M-271.1-199.1c0-12.1-12.1-21.9-27-21.9c-14.9,0-27,9.8-27,21.9c0,10.8,9.6,19.9,22.5,21.6
			c0.9,0.2,2.1,0.6,2.4,1.3c0.3,0.7,0.2,1.8,0.1,2.4c0,0-0.3,1.9-0.4,2.3c-0.1,0.7-0.5,2.7,2.3,1.4c2.9-1.2,15.5-9.1,21.2-15.7l0,0
			C-273-190-271.1-194.3-271.1-199.1"/>
	</g>
	<g>
		<path class="st0" d="M40.9,34h-3.1c-0.5,0-0.9,0.4-0.9,0.9v19.6c0,0.5,0.4,0.9,0.9,0.9h3.1c0.5,0,0.9-0.4,0.9-0.9V34.8
			C41.8,34.3,41.4,34,40.9,34z"/>
		<path class="st0" d="M62.5,34h-3.1c-0.5,0-0.9,0.4-0.9,0.9v11.6l-9-12.1c0,0,0-0.1-0.1-0.1l0,0l0,0l0,0l0,0l0,0l0,0l0,0l0,0l0,0
			l0,0l0,0l0,0l0,0l0,0l0,0l0,0l0,0h-3.1c-0.5,0-0.9,0.4-0.9,0.9v19.6c0,0.5,0.4,0.9,0.9,0.9h3.1c0.5,0,0.9-0.4,0.9-0.9v-12l9,12.1
			c0.1,0.1,0.1,0.2,0.2,0.2l0,0l0,0l0,0l0,0l0,0l0,0c0,0,0,0,0.1,0l0,0c0.1,0,0.1,0,0.2,0h3.1c0.5,0,0.9-0.4,0.9-0.9V34.8
			C63.4,34.3,63,34,62.5,34z"/>
		<path class="st0" d="M33.3,50.4h-8.6V34.8c0-0.5-0.4-0.9-0.9-0.9h-3.1c-0.5,0-0.9,0.4-0.9,0.9v19.6c0,0.2,0.1,0.4,0.2,0.6l0,0l0,0
			c0.1,0.1,0.4,0.2,0.6,0.2h12.6c0.5,0,0.9-0.4,0.9-0.9v-3.1C34.2,50.8,33.8,50.4,33.3,50.4z"/>
		<path class="st0" d="M80.8,38v-3.1c0-0.5-0.4-0.9-0.9-0.9H67.3c-0.2,0-0.4,0.1-0.6,0.2l0,0l0,0c-0.1,0.1-0.2,0.4-0.2,0.6v19.6
			c0,0.2,0.1,0.4,0.2,0.6l0,0l0,0c0.1,0.1,0.4,0.2,0.6,0.2h12.6c0.5,0,0.9-0.4,0.9-0.9v-3.1c0-0.5-0.4-0.9-0.9-0.9h-8.6V47h8.6
			c0.5,0,0.9-0.4,0.9-0.9V43c0-0.5-0.4-0.9-0.9-0.9h-8.6v-3.3h8.6l0,0C80.4,38.8,80.8,38.5,80.8,38z"/>
	</g>
</g>
</svg>
